<mxfile host="app.diagrams.net" agent="Mozilla/5.0 (Windows NT 10.0; Win64; x64) AppleWebKit/537.36 (KHTML, like Gecko) Chrome/128.0.0.0 Safari/537.36 OPR/114.0.0.0" version="25.0.3">
  <diagram id="C5RBs43oDa-KdzZeNtuy" name="Page-1">
    <mxGraphModel dx="1009" dy="619" grid="1" gridSize="10" guides="1" tooltips="1" connect="1" arrows="1" fold="1" page="1" pageScale="1" pageWidth="827" pageHeight="1169" math="0" shadow="0">
      <root>
        <mxCell id="WIyWlLk6GJQsqaUBKTNV-0" />
        <mxCell id="WIyWlLk6GJQsqaUBKTNV-1" parent="WIyWlLk6GJQsqaUBKTNV-0" />
        <mxCell id="ICIlq7ei2oUqExQS0pTp-1" style="edgeStyle=orthogonalEdgeStyle;rounded=0;orthogonalLoop=1;jettySize=auto;html=1;entryX=0.5;entryY=0;entryDx=0;entryDy=0;" parent="WIyWlLk6GJQsqaUBKTNV-1" target="bHjJD3vWhbEjWp8vi1Ca-0" edge="1">
          <mxGeometry relative="1" as="geometry">
            <mxPoint x="140" y="200" as="targetPoint" />
            <mxPoint x="140" y="120" as="sourcePoint" />
          </mxGeometry>
        </mxCell>
        <mxCell id="ICIlq7ei2oUqExQS0pTp-3" style="edgeStyle=orthogonalEdgeStyle;rounded=0;orthogonalLoop=1;jettySize=auto;html=1;" parent="WIyWlLk6GJQsqaUBKTNV-1" target="ICIlq7ei2oUqExQS0pTp-4" edge="1">
          <mxGeometry relative="1" as="geometry">
            <mxPoint x="140" y="360" as="targetPoint" />
            <mxPoint x="140" y="300" as="sourcePoint" />
          </mxGeometry>
        </mxCell>
        <mxCell id="ICIlq7ei2oUqExQS0pTp-5" style="edgeStyle=orthogonalEdgeStyle;rounded=0;orthogonalLoop=1;jettySize=auto;html=1;" parent="WIyWlLk6GJQsqaUBKTNV-1" source="ICIlq7ei2oUqExQS0pTp-4" target="ICIlq7ei2oUqExQS0pTp-6" edge="1">
          <mxGeometry relative="1" as="geometry">
            <mxPoint x="140" y="520" as="targetPoint" />
          </mxGeometry>
        </mxCell>
        <mxCell id="ICIlq7ei2oUqExQS0pTp-4" value="delta=b*b - 4 * a *c" style="rounded=1;whiteSpace=wrap;html=1;absoluteArcSize=1;arcSize=14;strokeWidth=2;" parent="WIyWlLk6GJQsqaUBKTNV-1" vertex="1">
          <mxGeometry x="90" y="360" width="100" height="100" as="geometry" />
        </mxCell>
        <mxCell id="ICIlq7ei2oUqExQS0pTp-7" style="edgeStyle=orthogonalEdgeStyle;rounded=0;orthogonalLoop=1;jettySize=auto;html=1;" parent="WIyWlLk6GJQsqaUBKTNV-1" source="ICIlq7ei2oUqExQS0pTp-6" target="ICIlq7ei2oUqExQS0pTp-8" edge="1">
          <mxGeometry relative="1" as="geometry">
            <mxPoint x="280" y="570" as="targetPoint" />
          </mxGeometry>
        </mxCell>
        <mxCell id="ICIlq7ei2oUqExQS0pTp-10" style="edgeStyle=orthogonalEdgeStyle;rounded=0;orthogonalLoop=1;jettySize=auto;html=1;" parent="WIyWlLk6GJQsqaUBKTNV-1" source="ICIlq7ei2oUqExQS0pTp-6" target="ICIlq7ei2oUqExQS0pTp-11" edge="1">
          <mxGeometry relative="1" as="geometry">
            <mxPoint x="140" y="680" as="targetPoint" />
          </mxGeometry>
        </mxCell>
        <mxCell id="ICIlq7ei2oUqExQS0pTp-6" value="delta &amp;lt; 0" style="strokeWidth=2;html=1;shape=mxgraph.flowchart.decision;whiteSpace=wrap;" parent="WIyWlLk6GJQsqaUBKTNV-1" vertex="1">
          <mxGeometry x="90" y="520" width="100" height="100" as="geometry" />
        </mxCell>
        <mxCell id="ICIlq7ei2oUqExQS0pTp-22" style="edgeStyle=orthogonalEdgeStyle;rounded=0;orthogonalLoop=1;jettySize=auto;html=1;entryX=0.5;entryY=0;entryDx=0;entryDy=0;entryPerimeter=0;" parent="WIyWlLk6GJQsqaUBKTNV-1" source="ICIlq7ei2oUqExQS0pTp-8" target="bHjJD3vWhbEjWp8vi1Ca-3" edge="1">
          <mxGeometry relative="1" as="geometry">
            <mxPoint x="620" y="670" as="targetPoint" />
          </mxGeometry>
        </mxCell>
        <mxCell id="ICIlq7ei2oUqExQS0pTp-8" value="&amp;nbsp;Phương trình vô nghiệm" style="strokeWidth=2;html=1;shape=mxgraph.flowchart.display;whiteSpace=wrap;" parent="WIyWlLk6GJQsqaUBKTNV-1" vertex="1">
          <mxGeometry x="250" y="540" width="100" height="60" as="geometry" />
        </mxCell>
        <mxCell id="ICIlq7ei2oUqExQS0pTp-9" value="True" style="text;html=1;align=center;verticalAlign=middle;resizable=0;points=[];autosize=1;strokeColor=none;fillColor=none;" parent="WIyWlLk6GJQsqaUBKTNV-1" vertex="1">
          <mxGeometry x="185" y="538" width="50" height="30" as="geometry" />
        </mxCell>
        <mxCell id="ICIlq7ei2oUqExQS0pTp-13" style="edgeStyle=orthogonalEdgeStyle;rounded=0;orthogonalLoop=1;jettySize=auto;html=1;" parent="WIyWlLk6GJQsqaUBKTNV-1" source="ICIlq7ei2oUqExQS0pTp-11" target="ICIlq7ei2oUqExQS0pTp-14" edge="1">
          <mxGeometry relative="1" as="geometry">
            <mxPoint x="240" y="720" as="targetPoint" />
          </mxGeometry>
        </mxCell>
        <mxCell id="ICIlq7ei2oUqExQS0pTp-16" style="edgeStyle=orthogonalEdgeStyle;rounded=0;orthogonalLoop=1;jettySize=auto;html=1;" parent="WIyWlLk6GJQsqaUBKTNV-1" source="ICIlq7ei2oUqExQS0pTp-11" target="ICIlq7ei2oUqExQS0pTp-17" edge="1">
          <mxGeometry relative="1" as="geometry">
            <mxPoint x="140" y="840" as="targetPoint" />
          </mxGeometry>
        </mxCell>
        <mxCell id="ICIlq7ei2oUqExQS0pTp-11" value="delta == 0" style="strokeWidth=2;html=1;shape=mxgraph.flowchart.decision;whiteSpace=wrap;" parent="WIyWlLk6GJQsqaUBKTNV-1" vertex="1">
          <mxGeometry x="90" y="670" width="100" height="100" as="geometry" />
        </mxCell>
        <mxCell id="ICIlq7ei2oUqExQS0pTp-12" value="false" style="text;html=1;align=center;verticalAlign=middle;resizable=0;points=[];autosize=1;strokeColor=none;fillColor=none;" parent="WIyWlLk6GJQsqaUBKTNV-1" vertex="1">
          <mxGeometry x="135" y="618" width="50" height="30" as="geometry" />
        </mxCell>
        <mxCell id="ICIlq7ei2oUqExQS0pTp-14" value="Phương trình có nghiệm kép x1=x2=-b/a" style="strokeWidth=2;html=1;shape=mxgraph.flowchart.display;whiteSpace=wrap;" parent="WIyWlLk6GJQsqaUBKTNV-1" vertex="1">
          <mxGeometry x="270" y="680" width="150" height="80" as="geometry" />
        </mxCell>
        <mxCell id="ICIlq7ei2oUqExQS0pTp-15" value="True" style="text;html=1;align=center;verticalAlign=middle;resizable=0;points=[];autosize=1;strokeColor=none;fillColor=none;" parent="WIyWlLk6GJQsqaUBKTNV-1" vertex="1">
          <mxGeometry x="185" y="688" width="50" height="30" as="geometry" />
        </mxCell>
        <mxCell id="ICIlq7ei2oUqExQS0pTp-18" style="edgeStyle=orthogonalEdgeStyle;rounded=0;orthogonalLoop=1;jettySize=auto;html=1;" parent="WIyWlLk6GJQsqaUBKTNV-1" source="ICIlq7ei2oUqExQS0pTp-17" target="ICIlq7ei2oUqExQS0pTp-19" edge="1">
          <mxGeometry relative="1" as="geometry">
            <mxPoint x="270" y="860" as="targetPoint" />
          </mxGeometry>
        </mxCell>
        <mxCell id="ICIlq7ei2oUqExQS0pTp-17" value="delta &amp;gt; 0" style="strokeWidth=2;html=1;shape=mxgraph.flowchart.decision;whiteSpace=wrap;" parent="WIyWlLk6GJQsqaUBKTNV-1" vertex="1">
          <mxGeometry x="90" y="810" width="100" height="100" as="geometry" />
        </mxCell>
        <mxCell id="ICIlq7ei2oUqExQS0pTp-19" value="Phương trình có nghiệm x1=x2=(-b +/- sqrt(delta)) / (2*a)&quot;" style="strokeWidth=2;html=1;shape=mxgraph.flowchart.display;whiteSpace=wrap;" parent="WIyWlLk6GJQsqaUBKTNV-1" vertex="1">
          <mxGeometry x="280" y="820" width="260" height="120" as="geometry" />
        </mxCell>
        <mxCell id="ICIlq7ei2oUqExQS0pTp-20" value="True" style="text;html=1;align=center;verticalAlign=middle;resizable=0;points=[];autosize=1;strokeColor=none;fillColor=none;" parent="WIyWlLk6GJQsqaUBKTNV-1" vertex="1">
          <mxGeometry x="205" y="828" width="50" height="30" as="geometry" />
        </mxCell>
        <mxCell id="ICIlq7ei2oUqExQS0pTp-21" value="False" style="text;html=1;align=center;verticalAlign=middle;resizable=0;points=[];autosize=1;strokeColor=none;fillColor=none;" parent="WIyWlLk6GJQsqaUBKTNV-1" vertex="1">
          <mxGeometry x="135" y="768" width="50" height="30" as="geometry" />
        </mxCell>
        <mxCell id="ICIlq7ei2oUqExQS0pTp-24" style="edgeStyle=orthogonalEdgeStyle;rounded=0;orthogonalLoop=1;jettySize=auto;html=1;entryX=0;entryY=0.5;entryDx=0;entryDy=0;entryPerimeter=0;" parent="WIyWlLk6GJQsqaUBKTNV-1" source="ICIlq7ei2oUqExQS0pTp-14" target="bHjJD3vWhbEjWp8vi1Ca-3" edge="1">
          <mxGeometry relative="1" as="geometry">
            <mxPoint x="570" y="720" as="targetPoint" />
          </mxGeometry>
        </mxCell>
        <mxCell id="ICIlq7ei2oUqExQS0pTp-25" style="edgeStyle=orthogonalEdgeStyle;rounded=0;orthogonalLoop=1;jettySize=auto;html=1;entryX=0.5;entryY=1;entryDx=0;entryDy=0;entryPerimeter=0;" parent="WIyWlLk6GJQsqaUBKTNV-1" source="ICIlq7ei2oUqExQS0pTp-19" target="bHjJD3vWhbEjWp8vi1Ca-3" edge="1">
          <mxGeometry relative="1" as="geometry">
            <mxPoint x="620" y="770" as="targetPoint" />
          </mxGeometry>
        </mxCell>
        <mxCell id="bHjJD3vWhbEjWp8vi1Ca-1" style="edgeStyle=orthogonalEdgeStyle;rounded=0;orthogonalLoop=1;jettySize=auto;html=1;entryX=0.5;entryY=0;entryDx=0;entryDy=0;" edge="1" parent="WIyWlLk6GJQsqaUBKTNV-1" source="bHjJD3vWhbEjWp8vi1Ca-0" target="ICIlq7ei2oUqExQS0pTp-4">
          <mxGeometry relative="1" as="geometry" />
        </mxCell>
        <mxCell id="bHjJD3vWhbEjWp8vi1Ca-0" value="Input a,b,c" style="shape=parallelogram;perimeter=parallelogramPerimeter;whiteSpace=wrap;html=1;fixedSize=1;" vertex="1" parent="WIyWlLk6GJQsqaUBKTNV-1">
          <mxGeometry x="80" y="210" width="120" height="60" as="geometry" />
        </mxCell>
        <mxCell id="bHjJD3vWhbEjWp8vi1Ca-2" value="start" style="strokeWidth=2;html=1;shape=mxgraph.flowchart.start_1;whiteSpace=wrap;" vertex="1" parent="WIyWlLk6GJQsqaUBKTNV-1">
          <mxGeometry x="90" y="60" width="100" height="60" as="geometry" />
        </mxCell>
        <mxCell id="bHjJD3vWhbEjWp8vi1Ca-3" value="end" style="strokeWidth=2;html=1;shape=mxgraph.flowchart.start_1;whiteSpace=wrap;" vertex="1" parent="WIyWlLk6GJQsqaUBKTNV-1">
          <mxGeometry x="590" y="690" width="100" height="60" as="geometry" />
        </mxCell>
      </root>
    </mxGraphModel>
  </diagram>
</mxfile>
